<svg xmlns="http://www.w3.org/2000/svg" viewBox="0 0 200 82.7">
  <g>
    <text transform="matrix(1.2187 0 0 1 13 75.6393)" fill="#0e75c5" font-size="83" font-family="Arial, sans-serif">4</text>
    <text transform="matrix(1.2187 0 0 1 133 73.6393)" fill="#0e75c5" font-size="83" font-family="Arial, sans-serif">4</text>
  </g>
  <g>
    <path d="M81.8,29.2c4.1-5.7,10.7-9.4,18.3-9.4c6.3,0,12.1,2.7,16.1,6.9c0.6-0.4,1.1-0.7,1.7-1.1
      c-4.4-4.8-10.8-7.9-17.8-7.9c-8.3,0-15.6,4.2-20,10.6C80.7,28.5,81.3,28.8,81.8,29.2z"
      fill="#012e51"/>
    <path d="M118.1,53.7c-4,5.7-10.7,9.5-18.2,9.5c-6.3,0-12.1-2.6-16.2-6.8c-0.6,0.4-1.1,0.7-1.7,1.1
      c4.4,4.8,10.8,7.8,17.9,7.8c8.3,0,15.6-4.3,19.9-10.7C119.2,54.5,118.6,54.1,118.1,53.7z"
      fill="#012e51"/>
    <animateTransform attributeName="transform" type="rotate" from="360 100 41.3" to="0 100 41.3" dur="10s" repeatCount="indefinite"/>
  </g>
  <circle cx="100" cy="41" r="2" fill="#89ccff">
    <animate attributeName="r" values="2;8;2" dur="2s" repeatCount="indefinite"/>
    <animate attributeName="opacity" values="1;0;1" dur="2s" repeatCount="indefinite"/>
  </circle>
  <path d="M103.8,16.7c0.1,0.3,0.1,0.6,0.1,0.9c11.6,1.9,20.4,11.9,20.4,24.1
    c0,13.5-10.9,24.4-24.4,24.4S75.6,55.1,75.6,41.7c0-3.2,0.6-6.3,1.7-9.1c-0.3-0.2-0.5-0.3-0.7-0.5
    c-1.2,3-1.9,6.2-1.9,9.6c0,14,11.3,25.3,25.3,25.3s25.3-11.3,25.3-25.3C125.3,29,115.9,18.5,103.8,16.7z"
    fill="#0e75c5" filter="url(#blurFilter4)"/>
  <defs>
    <filter id="blurFilter4" x="-20" y="-20" width="200" height="200">
      <feGaussianBlur in="SourceGraphic" stdDeviation="1.5"/>
    </filter>
  </defs>
</svg>
