<svg xmlns="http://www.w3.org/2000/svg" style="display: none;">
<symbol id="arrow-right-short" viewBox="0 0 24 24"><path fill="currentColor" fill-rule="evenodd" d="M10 19a1 1 0 0 1-.768-1.64l4.476-5.371-4.315-5.362a1 1 0 0 1 1.558-1.254l4.829 6a1 1 0 0 1-.011 1.267l-5 6a1 1 0 0 1-.77.36" clip-rule="evenodd"/></symbol>
<symbol id="arrow-right" viewBox="0 0 24 24"><path fill="currentColor" d="M5 13h11.865l-3.633 4.36a1 1 0 1 0 1.537 1.28l5-6c.039-.047.058-.102.087-.154.024-.042.053-.078.071-.124a1 1 0 0 0 .072-.358L20 12l-.001-.004a1 1 0 0 0-.072-.358c-.018-.046-.047-.082-.071-.124-.029-.052-.048-.107-.087-.154l-5-6a1 1 0 0 0-1.409-.128 1 1 0 0 0-.128 1.408L16.865 11H5a1 1 0 0 0 0 2"/></symbol>
<symbol id="briefcase-solid-full" viewBox="0 0 640 640"><!--!Font Awesome Free 7.0.1 by @fontawesome - https://fontawesome.com License - https://fontawesome.com/license/free Copyright 2025 Fonticons, Inc.--><path fill="currentColor" d="M264 112h112c4.4 0 8 3.6 8 8v40H256v-40c0-4.4 3.6-8 8-8m-56 8v40h-80c-35.3 0-64 28.7-64 64v96h512v-96c0-35.3-28.7-64-64-64h-80v-40c0-30.9-25.1-56-56-56H264c-30.9 0-56 25.1-56 56m368 248H384v16c0 17.7-14.3 32-32 32h-64c-17.7 0-32-14.3-32-32v-16H64v112c0 35.3 28.7 64 64 64h384c35.3 0 64-28.7 64-64z"/></symbol>
<symbol id="close" viewBox="0 0 24 24"><path fill="currentColor" fill-rule="evenodd" d="m13.414 12 4.293-4.293a.999.999 0 1 0-1.414-1.414L12 10.586 7.707 6.293a.999.999 0 1 0-1.414 1.414L10.586 12l-4.293 4.293a.999.999 0 1 0 1.414 1.414L12 13.414l4.293 4.293a.997.997 0 0 0 1.414 0 1 1 0 0 0 0-1.414z" clip-rule="evenodd"/></symbol>
<symbol id="handshake-solid-full" viewBox="0 0 640 640"><!--!Font Awesome Free 7.0.1 by @fontawesome - https://fontawesome.com License - https://fontawesome.com/license/free Copyright 2025 Fonticons, Inc.--><path fill="currentColor" d="M300.9 149.2 184.3 278.8c-4.6 5.1-4.4 13 .5 17.9 30.5 30.5 80 30.5 110.5 0l31.8-31.8c4.2-4.2 9.5-6.5 14.9-6.9 6.8-.6 13.8 1.7 19 6.9L537.6 440l70.4-56V96l-112 64-23.8-15.9a96.2 96.2 0 0 0-53.3-16.1h-70.4c-1.1 0-2.3 0-3.4.1-16.9.9-32.8 8.5-44.2 21.1m-152.3 97.5L255.4 128h-39.6c-25.5 0-49.9 10.1-67.9 28.1L144 160 32 96v288l156.4 130.3c23 19.2 52 29.7 81.9 29.7H286l-7-7c-9.4-9.4-9.4-24.6 0-33.9s24.6-9.4 33.9 0l41 41h9c19.1 0 37.8-4.3 54.8-12.3L391 505c-9.4-9.4-9.4-24.6 0-33.9s24.6-9.4 33.9 0l32 32 17.5-17.5c8.9-8.9 11.5-21.8 7.6-33.1L344.1 315.7l-14.9 14.9c-49.3 49.3-129.1 49.3-178.4 0-23-23-23.9-59.9-2.2-84z"/></symbol>
<symbol id="laptop-code-solid-full" viewBox="0 0 640 640"><!--!Font Awesome Free 7.0.1 by @fontawesome - https://fontawesome.com License - https://fontawesome.com/license/free Copyright 2025 Fonticons, Inc.--><path fill="currentColor" d="M64 160c0-35.3 28.7-64 64-64h384c35.3 0 64 28.7 64 64v240h-64V160H128v240H64zM0 467.2C0 456.6 8.6 448 19.2 448h601.6c10.6 0 19.2 8.6 19.2 19.2 0 42.4-34.4 76.8-76.8 76.8H76.8C34.4 544 0 509.6 0 467.2M281 273l-31 31 31 31c9.4 9.4 9.4 24.6 0 33.9s-24.6 9.4-33.9 0l-48-48c-9.4-9.4-9.4-24.6 0-33.9l48-48c9.4-9.4 24.6-9.4 33.9 0s9.4 24.6 0 33.9zm112-34 48 48c9.4 9.4 9.4 24.6 0 33.9l-48 48c-9.4 9.4-24.6 9.4-33.9 0s-9.4-24.6 0-33.9l31-31-31-31c-9.4-9.4-9.4-24.6 0-33.9s24.6-9.4 33.9 0z"/></symbol>
<symbol id="loader-filter" viewBox="0 0 24 24"></symbol>
<symbol id="user-tie-solid-full" viewBox="0 0 640 640"><!--!Font Awesome Free 7.0.1 by @fontawesome - https://fontawesome.com License - https://fontawesome.com/license/free Copyright 2025 Fonticons, Inc.--><path fill="currentColor" d="M320 312c-66.3 0-120-53.7-120-120S253.7 72 320 72s120 53.7 120 120-53.7 120-120 120m-30.5 56h61c9.7 0 17.5 7.8 17.5 17.5 0 4.2-1.5 8.2-4.2 11.4l-27.4 32 31 115.1h.6l34.6-138.5c2.2-8.7 11.1-14 19.5-10.8C484 418.3 528 478.3 528 548.5c0 15.1-12.3 27.4-27.4 27.4l-361.2.1c-15.1 0-27.4-12.3-27.4-27.4 0-70.2 44-130.2 105.9-153.8 8.4-3.2 17.3 2.1 19.5 10.8L272 544.1h.6l31-115.1-27.4-32c-2.7-3.2-4.2-7.2-4.2-11.4 0-9.7 7.8-17.5 17.5-17.5z"/></symbol>
</svg>